<svg width="17" height="17" viewBox="0 0 17 17" fill="none" xmlns="http://www.w3.org/2000/svg">
<path d="M14.4735 1.62302H3.08353C2.56162 1.62302 2.13757 2.05299 2.13757 2.58083V13.9501C2.13757 14.4779 2.56162 14.9079 3.08353 14.9079H14.4735C14.9954 14.9079 15.4224 14.4779 15.4224 13.9501V2.58083C15.4224 2.05299 14.9954 1.62302 14.4735 1.62302ZM6.15268 13.01H4.18368V6.67007H6.15565V13.01H6.15268ZM5.16818 5.80419C4.53656 5.80419 4.02651 5.29118 4.02651 4.66252C4.02651 4.03386 4.53656 3.52085 5.16818 3.52085C5.79684 3.52085 6.30985 4.03386 6.30985 4.66252C6.30985 5.29414 5.7998 5.80419 5.16818 5.80419V5.80419ZM13.5335 13.01H11.5645V9.92605C11.5645 9.19064 11.5497 8.24468 10.5414 8.24468C9.51541 8.24468 9.35824 9.04533 9.35824 9.87267V13.01H7.38924V6.67007H9.27818V7.53596H9.30487C9.56879 7.03778 10.2123 6.51291 11.1701 6.51291C13.1628 6.51291 13.5335 7.82657 13.5335 9.53462V13.01V13.01Z" fill="white"/>
</svg>
